HIERARCHY
ROOT reference
{
  OFFSET 0 0 0
  CHANNELS 6 Xposition Yposition Zposition Zrotation Xrotation Yrotation
  JOINT Hips
  {
    OFFSET 366.965 89.8555 201.872
    CHANNELS 3 Zrotation Xrotation Yrotation
    JOINT RightUpLeg
    {
      OFFSET -9.27238 -1.56811 0.0123499
      CHANNELS 3 Zrotation Xrotation Yrotation
      JOINT RightLeg
      {
        OFFSET 0.00682797 -41.8882 0.0419786
        CHANNELS 3 Zrotation Xrotation Yrotation
        JOINT RightFoot
        {
          OFFSET 0.530869 -42.1265 0.242224
          CHANNELS 3 Zrotation Xrotation Yrotation
          End Site
          {
            OFFSET 0 -7.69 17.5
          }
        }
      }
    }
    JOINT LeftUpLeg
    {
      OFFSET 9.28391 -1.61639 -0.0258413
      CHANNELS 3 Zrotation Xrotation Yrotation
      JOINT LeftLeg
      {
        OFFSET 0.0291166 -41.8727 -0.014263
        CHANNELS 3 Zrotation Xrotation Yrotation
        JOINT LeftFoot
        {
          OFFSET -0.125672 -41.4933 -0.195947
          CHANNELS 3 Zrotation Xrotation Yrotation
          End Site
          {
            OFFSET 0 -7.69 17.5
          }
        }
      }
    }
    JOINT Spine
    {
      OFFSET 0.0325614 14.2957 0.0242834
      CHANNELS 3 Zrotation Xrotation Yrotation
      JOINT Spine1
      {
        OFFSET 0.00746153 9.71731 0.0172653
        CHANNELS 3 Zrotation Xrotation Yrotation
        JOINT Spine2
        {
          OFFSET 0.0283815 10.1155 -0.00252583
          CHANNELS 3 Zrotation Xrotation Yrotation
          JOINT Spine3
          {
            OFFSET 0.0279172 9.71841 -0.00465252
            CHANNELS 3 Zrotation Xrotation Yrotation
            JOINT Neck
            {
              OFFSET 0.0182001 10.3765 0.0184284
              CHANNELS 3 Zrotation Xrotation Yrotation
              JOINT Head
              {
                OFFSET 0.0113688 9.47343 0.00632939
                CHANNELS 3 Zrotation Xrotation Yrotation
                End Site
                {
                  OFFSET 0 15.95 0
                }
              }
            }
            JOINT RightShoulder
            {
              OFFSET -3.17351 6.93492 0.00767284
              CHANNELS 3 Zrotation Xrotation Yrotation
              JOINT RightArm
              {
                OFFSET -12.7835 -0.0133269 0.0174019
                CHANNELS 3 Zrotation Xrotation Yrotation
                JOINT RightForeArm
                {
                  OFFSET -26.5112 -0.0170228 0.0247955
                  CHANNELS 3 Zrotation Xrotation Yrotation
                  JOINT RightHand
                  {
                    OFFSET -25.9918 -0.0199622 0.0218897
                    CHANNELS 3 Zrotation Xrotation Yrotation
                    JOINT RightHandThumb1
                    {
                      OFFSET -2.48905 0.190105 3.12053
                      CHANNELS 3 Zrotation Xrotation Yrotation
                      JOINT RightHandThumb2
                      {
                        OFFSET -3.68274 0 0
                        CHANNELS 3 Zrotation Xrotation Yrotation
                        JOINT RightHandThumb3
                        {
                          OFFSET -2.55832 0 0
                          CHANNELS 3 Zrotation Xrotation Yrotation
                          End Site
                          {
                            OFFSET -2.194 0 0
                          }
                        }
                      }
                    }
                    JOINT RightInHandIndex
                    {
                      OFFSET -3.22368 0.508421 1.97842
                      CHANNELS 3 Zrotation Xrotation Yrotation
                      JOINT RightHandIndex1
                      {
                        OFFSET -5.21684 -0.091368 0.999158
                        CHANNELS 3 Zrotation Xrotation Yrotation
                        JOINT RightHandIndex2
                        {
                          OFFSET -3.61937 0 0
                          CHANNELS 3 Zrotation Xrotation Yrotation
                          JOINT RightHandIndex3
                          {
                            OFFSET -2.0521 0 0
                            CHANNELS 3 Zrotation Xrotation Yrotation
                            End Site
                            {
                              OFFSET -1.805 0 0
                            }
                          }
                        }
                      }
                    }
                    JOINT RightInHandMiddle
                    {
                      OFFSET -3.38211 0.517263 0.756737
                      CHANNELS 3 Zrotation Xrotation Yrotation
                      JOINT RightHandMiddle1
                      {
                        OFFSET -5.17411 -0.084 0.313895
                        CHANNELS 3 Zrotation Xrotation Yrotation
                        JOINT RightHandMiddle2
                        {
                          OFFSET -3.94947 0 0
                          CHANNELS 3 Zrotation Xrotation Yrotation
                          JOINT RightHandMiddle3
                          {
                            OFFSET -2.47579 0 0
                            CHANNELS 3 Zrotation Xrotation Yrotation
                            End Site
                            {
                              OFFSET -1.975 0 0
                            }
                          }
                        }
                      }
                    }
                    JOINT RightInHandRing
                    {
                      OFFSET -3.36516 0.537895 -0.128947
                      CHANNELS 3 Zrotation Xrotation Yrotation
                      JOINT RightHandRing1
                      {
                        OFFSET -4.63474 -0.022105 -0.478947
                        CHANNELS 3 Zrotation Xrotation Yrotation
                        JOINT RightHandRing2
                        {
                          OFFSET -3.44238 0 0
                          CHANNELS 3 Zrotation Xrotation Yrotation
                          JOINT RightHandRing3
                          {
                            OFFSET -2.3881 0 0
                            CHANNELS 3 Zrotation Xrotation Yrotation
                            End Site
                            {
                              OFFSET -1.857 0 0
                            }
                          }
                        }
                      }
                    }
                    JOINT RightInHandPinky
                    {
                      OFFSET -3.16105 0.469368 -1.20179
                      CHANNELS 3 Zrotation Xrotation Yrotation
                      JOINT RightHandPinky1
                      {
                        OFFSET -4.14105 -0.022105 -1.09053
                        CHANNELS 3 Zrotation Xrotation Yrotation
                        JOINT RightHandPinky2
                        {
                          OFFSET -2.75653 0 0
                          CHANNELS 3 Zrotation Xrotation Yrotation
                          JOINT RightHandPinky3
                          {
                            OFFSET -1.74189 0 0
                            CHANNELS 3 Zrotation Xrotation Yrotation
                            End Site
                            {
                              OFFSET -1.645 0 0
                            }
                          }
                        }
                      }
                    }
                  }
                }
              }
            }
            JOINT LeftShoulder
            {
              OFFSET 3.23633 6.91116 -0.0162332
              CHANNELS 3 Zrotation Xrotation Yrotation
              JOINT LeftArm
              {
                OFFSET 12.8112 -0.0136289 -0.0286256
                CHANNELS 3 Zrotation Xrotation Yrotation
                JOINT LeftForeArm
                {
                  OFFSET 26.502 -0.0235899 -0.00806802
                  CHANNELS 3 Zrotation Xrotation Yrotation
                  JOINT LeftHand
                  {
                    OFFSET 25.9974 -0.0321613 -0.027004
                    CHANNELS 3 Zrotation Xrotation Yrotation
                    JOINT LeftHandThumb1
                    {
                      OFFSET 2.48905 0.190105 3.12053
                      CHANNELS 3 Zrotation Xrotation Yrotation
                      JOINT LeftHandThumb2
                      {
                        OFFSET 3.68274 0 0
                        CHANNELS 3 Zrotation Xrotation Yrotation
                        JOINT LeftHandThumb3
                        {
                          OFFSET 2.55832 0 0
                          CHANNELS 3 Zrotation Xrotation Yrotation
                          End Site
                          {
                            OFFSET 2.194 0 0
                          }
                        }
                      }
                    }
                    JOINT LeftInHandIndex
                    {
                      OFFSET 3.22368 0.508421 1.97842
                      CHANNELS 3 Zrotation Xrotation Yrotation
                      JOINT LeftHandIndex1
                      {
                        OFFSET 5.21684 -0.091368 0.999158
                        CHANNELS 3 Zrotation Xrotation Yrotation
                        JOINT LeftHandIndex2
                        {
                          OFFSET 3.61937 0 0
                          CHANNELS 3 Zrotation Xrotation Yrotation
                          JOINT LeftHandIndex3
                          {
                            OFFSET 2.0521 0 0
                            CHANNELS 3 Zrotation Xrotation Yrotation
                            End Site
                            {
                              OFFSET 1.805 0 0
                            }
                          }
                        }
                      }
                    }
                    JOINT LeftInHandMiddle
                    {
                      OFFSET 3.38211 0.517263 0.756737
                      CHANNELS 3 Zrotation Xrotation Yrotation
                      JOINT LeftHandMiddle1
                      {
                        OFFSET 5.17411 -0.084 0.313895
                        CHANNELS 3 Zrotation Xrotation Yrotation
                        JOINT LeftHandMiddle2
                        {
                          OFFSET 3.94947 0 0
                          CHANNELS 3 Zrotation Xrotation Yrotation
                          JOINT LeftHandMiddle3
                          {
                            OFFSET 2.47579 0 0
                            CHANNELS 3 Zrotation Xrotation Yrotation
                            End Site
                            {
                              OFFSET 1.975 0 0
                            }
                          }
                        }
                      }
                    }
                    JOINT LeftInHandRing
                    {
                      OFFSET 3.36516 0.537895 -0.128947
                      CHANNELS 3 Zrotation Xrotation Yrotation
                      JOINT LeftHandRing1
                      {
                        OFFSET 4.63474 -0.022105 -0.478947
                        CHANNELS 3 Zrotation Xrotation Yrotation
                        JOINT LeftHandRing2
                        {
                          OFFSET 3.44238 0 0
                          CHANNELS 3 Zrotation Xrotation Yrotation
                          JOINT LeftHandRing3
                          {
                            OFFSET 2.3881 0 0
                            CHANNELS 3 Zrotation Xrotation Yrotation
                            End Site
                            {
                              OFFSET 1.857 0 0
                            }
                          }
                        }
                      }
                    }
                    JOINT LeftInHandPinky
                    {
                      OFFSET 3.16105 0.469368 -1.20179
                      CHANNELS 3 Zrotation Xrotation Yrotation
                      JOINT LeftHandPinky1
                      {
                        OFFSET 4.14105 -0.022105 -1.09053
                        CHANNELS 3 Zrotation Xrotation Yrotation
                        JOINT LeftHandPinky2
                        {
                          OFFSET 2.75653 0 0
                          CHANNELS 3 Zrotation Xrotation Yrotation
                          JOINT LeftHandPinky3
                          {
                            OFFSET 1.74189 0 0
                            CHANNELS 3 Zrotation Xrotation Yrotation
                            End Site
                            {
                              OFFSET 1.645 0 0
                            }
                          }
                        }
                      }
                    }
                  }
                }
              }
            }
          }
        }
      }
    }
  }
}
MOTION
Frames: 2
Frame Time: 0.00833333
3.150000000000000000e+03 0.000000000000000000e+00 0.000000000000000000e+00 0.000000000000000000e+00 0.000000000000000000e+00 0.000000000000000000e+00 2.291720000000000113e+01 1.562819999999999787e+01 -6.008320000000000505e+01 -1.258380000000000010e+01 -5.139620000000000033e+01 -1.679799999999999827e+01 -4.520030000000001102e+00 2.840290000000000248e+01 -1.278829999999999956e+01 9.632419999999999760e+00 -1.548190000000001731e+00 2.555749999999999744e+01 6.146990000000002397e+00 -4.618220000000000169e+01 -1.020340000000000025e+01 7.870430000000000703e+00 2.969640000000000413e+01 -2.227160000000001361e+00 -1.331439999999999912e+01 -1.159159999999999791e+01 -2.089430000000000121e+01 -3.788460000000000605e+00 1.505570000000000164e+01 1.090540000000000020e+01 -6.868699999999998695e-01 3.717020000000000213e+00 2.688380000000000436e+00 -1.176800000000000068e+00 5.946320000000000050e+00 4.472199999999999953e+00 -5.754130000000001743e-02 -5.285739999999999883e-01 -5.561469999999997249e-01 -5.729480000000003459e-02 -5.314609999999997392e-01 -5.549499999999998323e-01 -1.817450000000000898e+00 -9.977470000000000283e+00 -9.795909999999999229e+00 1.942830000000000390e-01 -1.436839999999999762e+01 2.514120000000000132e+01 6.479290000000000305e+01 3.303690000000003124e+00 5.243380000000000507e+01 1.639480000000000715e+01 -5.004760000000000275e+01 -6.549570000000102254e-01 1.305560000000000009e+01 -2.595570000000000022e+01 -1.735089999999999932e+01 2.818400000000000105e+01 1.072940000000000005e+01 1.915919999999999845e+01 1.333909999999999778e-14 2.385420000000000017e-15 -1.000000000000000000e+01 2.804090000000003327e-16 1.590279999999999485e-15 -1.000000000000000000e+01 7.888609052210118054e-31 -3.180550000000000771e-15 9.541660000000002090e-15 1.998179999999999978e+01 8.718970000000000331e-01 2.396399999999999864e+00 2.400000000000000000e+01 1.590280000000000274e-15 3.180550000000000771e-15 2.000000000000000000e+01 4.373259999999999596e-15 6.361109999999999741e-15 7.888609052210118054e-31 -3.180550000000000771e-15 9.541660000000002090e-15 2.000000000000000000e+01 0.000000000000000000e+00 0.000000000000000000e+00 2.400000000000000000e+01 4.770829999999999467e-15 6.361109999999997375e-15 2.000000000000000000e+01 -4.273870000000000164e-15 9.541660000000000512e-15 7.888609052210118054e-31 -3.180550000000000771e-15 9.541660000000002090e-15 1.997479999999999833e+01 -1.025649999999999951e+00 -2.819380000000000219e+00 2.400000000000000000e+01 7.951389999999999226e-15 -3.180549999999999193e-15 2.000000000000000000e+01 -5.329909999999999078e-15 2.226389999999999639e-14 7.888609052210118054e-31 -3.180550000000000771e-15 9.541660000000002090e-15 1.978150000000000119e+01 -3.009479999999999933e+00 -8.305149999999999366e+00 2.400000000000000000e+01 1.113189999999999773e-14 9.541660000000002090e-15 2.000000000000000000e+01 6.361109999999999741e-15 0.000000000000000000e+00 1.610739999999999839e+01 -1.388049999999999962e+01 -2.981250000000000000e+01 -3.466929999999999268e+01 3.325679999999999836e+01 -6.916909999999998604e+01 1.296780000000000399e+01 -8.064199999999999591e+01 1.377210000000000178e+01 -2.689939999999999642e+01 -2.357769999999999655e+01 7.989320000000000199e+00 -2.818400000000000105e+01 1.072940000000000005e+01 -1.915919999999999845e+01 -1.354689999999999931e-14 1.272219999999999993e-14 1.000000000000000000e+01 5.057200000000001002e-15 7.951389999999999226e-15 1.000000000000000000e+01 9.541660000000000512e-15 0.000000000000000000e+00 0.000000000000000000e+00 -1.998179999999999978e+01 8.718970000000000331e-01 -2.396399999999999864e+00 -2.400000000000000000e+01 7.951389999999999226e-16 9.541660000000000512e-15 -2.000000000000000000e+01 -7.951389999999999226e-15 9.541660000000003667e-15 9.541660000000000512e-15 0.000000000000000000e+00 0.000000000000000000e+00 -2.000000000000000000e+01 -1.590280000000000274e-15 9.541660000000000512e-15 -2.400000000000000000e+01 3.230249999999999981e-15 2.862499999999999793e-14 -2.000000000000000000e+01 -6.361109999999998163e-15 6.361110000000001319e-15 9.541660000000000512e-15 0.000000000000000000e+00 0.000000000000000000e+00 -1.997479999999999833e+01 -1.025649999999999951e+00 2.819380000000000219e+00 -2.400000000000000000e+01 2.981770000000000724e-15 0.000000000000000000e+00 -2.000000000000000000e+01 -4.770829999999998678e-15 -6.361109999999998163e-15 9.541660000000000512e-15 0.000000000000000000e+00 0.000000000000000000e+00 -1.978150000000000119e+01 -3.009479999999999933e+00 8.305149999999999366e+00 -2.400000000000000000e+01 -1.987850000000000145e-15 1.590280000000000116e-14 -2.000000000000000000e+01 6.361109999999999741e-15 0.000000000000000000e+00
3.150000000000000000e+03 0.000000000000000000e+00 0.000000000000000000e+00 0.000000000000000000e+00 0.000000000000000000e+00 0.000000000000000000e+00 2.291839999999999833e+01 1.562620000000000076e+01 -6.008769999999999811e+01 -1.257959999999999923e+01 -5.139869999999999095e+01 -1.679159999999999542e+01 -4.515579999999999927e+00 2.838699999999999690e+01 -1.277089999999999748e+01 9.625920000000000698e+00 -1.535680000000001044e+00 2.553289999999999793e+01 6.165070000000000050e+00 -4.620159999999999911e+01 -1.017509999999999870e+01 7.866019999999998902e+00 2.971069999999999567e+01 -2.243489999999997764e+00 -1.331439999999999735e+01 -1.159159999999999613e+01 -2.089430000000000121e+01 -3.787119999999999820e+00 1.504690000000000083e+01 1.090650000000000119e+01 -6.868699999999998695e-01 3.717020000000000657e+00 2.688379999999999548e+00 -1.176800000000000068e+00 5.946320000000000050e+00 4.472200000000001729e+00 -5.754130000000001743e-02 -5.285739999999999883e-01 -5.561469999999997249e-01 -5.729480000000003459e-02 -5.314610000000001833e-01 -5.549499999999998323e-01 -1.827489999999999171e+00 -9.969200000000000728e+00 -9.786419999999999675e+00 1.953670000000000129e-01 -1.435730000000000217e+01 2.514300000000000068e+01 6.479779999999998097e+01 3.302820000000004086e+00 5.243370000000000175e+01 1.646200000000000330e+01 -5.008070000000000022e+01 -5.873449999999991178e-01 1.304899999999999771e+01 -2.595270000000000010e+01 -1.735180000000000433e+01 2.818400000000000105e+01 1.072940000000000005e+01 1.915919999999999845e+01 1.333910000000000094e-14 2.385419999999999228e-15 -1.000000000000000000e+01 6.739650000000000563e-15 1.590280000000000274e-15 -1.000000000000000000e+01 0.000000000000000000e+00 -6.361109999999999741e-15 7.951389999999999226e-15 1.998179999999999978e+01 8.718970000000000331e-01 2.396399999999999864e+00 2.400000000000000000e+01 1.590280000000000274e-15 0.000000000000000000e+00 2.000000000000000000e+01 4.174479999999999154e-15 1.272219999999999677e-14 0.000000000000000000e+00 -6.361109999999999741e-15 7.951389999999999226e-15 2.000000000000000000e+01 0.000000000000000000e+00 -9.541660000000000512e-15 2.400000000000000000e+01 9.541660000000000512e-15 6.361109999999998952e-15 2.000000000000000000e+01 1.689669999999999706e-15 0.000000000000000000e+00 0.000000000000000000e+00 -6.361109999999999741e-15 7.951389999999999226e-15 1.997479999999999833e+01 -1.025649999999999951e+00 -2.819380000000000219e+00 2.400000000000000000e+01 0.000000000000000000e+00 6.361109999999998163e-15 2.000000000000000000e+01 -2.410259999999999844e-15 2.226389999999999639e-14 0.000000000000000000e+00 -6.361109999999999741e-15 7.951389999999999226e-15 1.978150000000000119e+01 -3.009479999999999933e+00 -8.305149999999999366e+00 2.400000000000000000e+01 1.431249999999999897e-14 6.361109999999996586e-15 2.000000000000000000e+01 1.669790000000000337e-14 -6.361109999999996586e-15 1.609849999999999781e+01 -1.387299999999999756e+01 -2.981150000000000233e+01 -3.466149999999998954e+01 3.326359999999998962e+01 -6.916429999999999723e+01 1.289230000000000587e+01 -8.058309999999998752e+01 1.369879999999999853e+01 -2.694169999999999732e+01 -2.352819999999999823e+01 7.967839999999998923e+00 -2.818400000000000105e+01 1.072940000000000005e+01 -1.915919999999999845e+01 -7.020059999999999927e-15 3.180549999999999193e-15 1.000000000000000000e+01 9.128040000000002283e-15 3.180549999999999982e-15 1.000000000000000000e+01 7.951389999999999226e-15 0.000000000000000000e+00 -6.361110000000000530e-15 -1.998179999999999978e+01 8.718970000000000331e-01 -2.396399999999999864e+00 -2.400000000000000000e+01 -1.093320000000000182e-15 -3.180549999999999193e-15 -2.000000000000000000e+01 -3.180550000000000771e-15 1.272219999999999835e-14 7.951389999999999226e-15 0.000000000000000000e+00 -6.361110000000000530e-15 -2.000000000000000000e+01 3.180549999999999982e-15 0.000000000000000000e+00 -2.400000000000000000e+01 1.217559999999999219e-15 6.361109999999999741e-15 -2.000000000000000000e+01 -3.180550000000000376e-15 -9.541659999999998934e-15 7.951389999999999226e-15 0.000000000000000000e+00 -6.361110000000000530e-15 -1.997479999999999833e+01 -1.025649999999999951e+00 2.819380000000000219e+00 -2.400000000000000000e+01 1.192710000000000403e-15 3.180549999999999193e-15 -2.000000000000000000e+01 -9.541660000000000512e-15 -3.180549999999998404e-15 7.951389999999999226e-15 0.000000000000000000e+00 -6.361110000000000530e-15 -1.978150000000000119e+01 -3.009479999999999933e+00 8.305149999999999366e+00 -2.400000000000000000e+01 2.385420000000000017e-15 6.361110000000000530e-15 -2.000000000000000000e+01 0.000000000000000000e+00 -9.541659999999998934e-15
